<svg xmlns="http://www.w3.org/2000/svg" width="90.191" height="24.138" viewBox="0 0 90.191 24.138">
  <g id="Group_2" data-name="Group 2" transform="translate(-924.73 -353.5)">
    <path id="Path_1" data-name="Path 1" d="M1186.228,452.159a7.72,7.72,0,0,1,7.933,7.916c0,5.669-4.125,8.465-8.025,8.465a7.905,7.905,0,0,1-8.142-8.018,8.2,8.2,0,0,1,8.234-8.363Zm-.422,1.332c-1.732,0-3.368,1.753-3.368,5.988,0,4.393,1.625,7.694,4.072,7.694,1.63,0,3.206-1.147,3.206-6.166C1189.717,456.394,1188.3,453.491,1185.806,453.491Z" transform="translate(-233.417 -90.927)" fill="#131313"/>
    <path id="Path_2" data-name="Path 2" d="M1413.663,407.617a3.725,3.725,0,0,1-1.442.411c-2.546,0-4.014-1.3-4.014-4.364v-9.95h-2.31l-.186-.422.995-1.224h1.5V389.14c1.01-.794,2.486-1.845,3.519-2.639l.481.207c-.048,1.133-.106,3.057-.083,5.359h3.686a1.363,1.363,0,0,1-.256,1.646h-3.429v8.743c0,2.777,1.125,3.168,1.878,3.168a4.616,4.616,0,0,0,1.846-.425l.339,1.142Z" transform="translate(-443.288 -30.416)" fill="#131313"/>
    <path id="Path_3" data-name="Path 3" d="M1568.072,464.8c-1.591,2.22-3.946,3.743-6.076,3.743a7.3,7.3,0,0,1-7.485-7.492,8.37,8.37,0,0,1,3.571-6.772,9.929,9.929,0,0,1,5.843-2.117,5.4,5.4,0,0,1,3.153.88,1.342,1.342,0,0,1,.631,1.2,2.07,2.07,0,0,1-1.47,1.832,1.077,1.077,0,0,1-.736-.374,5.817,5.817,0,0,0-3.617-1.7c-1.7,0-3.489,1.556-3.489,5.3-.012,4.747,3.371,6.294,5.066,6.294a5.352,5.352,0,0,0,3.944-1.635Z" transform="translate(-580.426 -90.927)" fill="#131313"/>
    <path id="Path_4" data-name="Path 4" d="M1757.354,373.491v-6.343c0-3.988-1.889-5.917-4.884-5.917a7.486,7.486,0,0,0-4.866,2.382V353.5h-6.194v1.086c2.1.279,2.277.69,2.277,2.393v16.5c0,2.262-.365,2.393-2.2,2.591v1.121h8.116V376.07c-1.788-.234-2-.467-2-2.5v-8.61a4.1,4.1,0,0,1,2.97-1.3c1.715-.012,2.839,1.1,2.839,3.877v6.036c0,2.045-.167,2.266-1.885,2.5v1.121h7.893v-1.121C1757.612,375.826,1757.354,375.742,1757.354,373.491Z" transform="translate(-752.68)" fill="#131313"/>
    <path id="Path_5" data-name="Path 5" d="M2010.644,598.142a2.694,2.694,0,1,1,2.694-2.694,2.7,2.7,0,0,1-2.694,2.694Z" transform="translate(-998.417 -220.504)" fill="#131313"/>
    <g id="Group_1" data-name="Group 1" transform="translate(924.73 353.5)">
      <path id="Path_6" data-name="Path 6" d="M936.161,361.489c4.837-3.183,4.531-7.353,4.452-7.989h-8.808v.935h2.986c.948,0,1.255.438,1.085,1.8-.023.189-.219.881-.259,1a9.794,9.794,0,0,1-3.812,4.86v1.5a5.191,5.191,0,0,1,.987-.091c2.367,0,4.627,1.945,4.627,6.223,0,4.156-1.5,6.377-3.708,6.377a3.2,3.2,0,0,1-2.748-1.7,3.276,3.276,0,0,1-.2-1.194V353.5H924.73v.958c2.043.152,2.161,1.343,2.161,3.385v15.741c0,.894,0,1.854-.024,2.714a15.191,15.191,0,0,0,5.9,1.251,8.964,8.964,0,0,0,8.947-8.861,7.181,7.181,0,0,0-5.553-7.2Z" transform="translate(-924.73 -353.5)" fill="#131313"/>
    </g>
  </g>
</svg>
