<svg xmlns="http://www.w3.org/2000/svg" width="80" height="80" viewBox="0 0 80 80">
  <g id="Group_40" data-name="Group 40" transform="translate(-208 -656)">
    <g id="Group_37" data-name="Group 37" transform="translate(208 656)">
      <g id="Group_35" data-name="Group 35">
        <path id="Path_30" data-name="Path 30" d="M194.957-416.609c13.408-5.357,31.619-6.036,46.079,2.568s11.613,17.881,10.786,31.471-4.855,22.828-9.245,27.494-9.9,15.3-25.473,14.443-28.223.079-35.236-14.443-13.005-24.985-6.413-38S181.549-411.252,194.957-416.609Z" transform="translate(-172.606 420.585)" fill="#e88661"/>
        <g id="Group_1" data-name="Group 1" transform="translate(22.606 18.03)">
          <path id="Path_6" data-name="Path 6" d="M948.14,369.861c9.906-6.519,9.279-15.058,9.117-16.361H939.219v1.915h6.116c1.941,0,2.57.9,2.222,3.686-.047.387-.448,1.8-.53,2.048a20.056,20.056,0,0,1-7.807,9.953v3.072a10.627,10.627,0,0,1,2.021-.186c4.848,0,9.476,3.983,9.476,12.744,0,8.511-3.071,13.059-7.593,13.059a6.551,6.551,0,0,1-5.627-3.481,6.7,6.7,0,0,1-.41-2.446V353.5H924.73v1.962c4.184.311,4.425,2.75,4.425,6.932V394.63c0,1.831,0,3.8-.049,5.558a31.106,31.106,0,0,0,12.083,2.562A18.358,18.358,0,0,0,959.512,384.6a14.7,14.7,0,0,0-11.372-14.743Z" transform="translate(-924.73 -353.5)" fill="#f5f5f5"/>
        </g>
      </g>
    </g>
  </g>
</svg>
