<svg xmlns="http://www.w3.org/2000/svg" width="22.126" height="15.235" viewBox="0 0 22.126 15.235">
  <g id="Group_24" data-name="Group 24" transform="translate(-520.889 326.011)">
    <path id="Path_11" data-name="Path 11" d="M325.5-324.152a48.145,48.145,0,0,1,5.994-.015c3.508.192,4.219.052,8.336.015s5.671-.015,5.671-.015" transform="translate(196.5 -0.751)" fill="none" stroke="#e88661" stroke-linecap="round" stroke-width="2"/>
    <path id="Path_12" data-name="Path 12" d="M325.5-324.152a34.772,34.772,0,0,0,5.994-.015c3.782-.277,5.339.129,8.336.015s3.881-.042,5.671-.015" transform="translate(196.5 5.249)" fill="none" stroke="#e88661" stroke-linecap="round" stroke-width="2"/>
    <path id="Path_13" data-name="Path 13" d="M325.5-324.152a18.787,18.787,0,0,0,3.8-.015,19.519,19.519,0,0,1,5.291.015,13.89,13.89,0,0,0,3.6-.015" transform="translate(202.805 12.249)" fill="none" stroke="#e88661" stroke-linecap="round" stroke-width="2"/>
  </g>
</svg>
