<svg xmlns="http://www.w3.org/2000/svg" width="61.902" height="62.001" viewBox="0 0 61.902 62.001">
  <g id="Group_31" data-name="Group 31" transform="translate(-1012.588 828.092)">
    <path id="Path_25" data-name="Path 25" d="M1026-786.006s-.982,8.185,0,12.7,2.477,4.643,3.927,5.361,10.46,1,14.854.726a6.178,6.178,0,0,0,5.878-4.944c.245-1.187,1.3-9.463,0-14.4s-5.2-5.344-5.2-5.344-9.576-1.475-14.439,0A6.73,6.73,0,0,0,1026-786.006Z" transform="translate(5.134 -17.252)" fill="none" stroke="#131313" stroke-width="2"/>
    <circle id="Ellipse_4" data-name="Ellipse 4" cx="1.502" cy="1.502" r="1.502" transform="translate(1049.366 -805.956)" fill="#131313"/>
    <path id="Path_26" data-name="Path 26" d="M1035.99-787.7c-2.039.054-5.5.859-5.919,5.006a5.888,5.888,0,0,0,5.919,6.563c2.97-.009,5.909-1.976,5.9-6.222S1038.029-787.756,1035.99-787.7Z" transform="translate(7.379 -14.815)" fill="none" stroke="#131313" stroke-width="2"/>
    <path id="Path_29" data-name="Path 29" d="M189.369-417.6c10.056-4.018,23.714-4.527,34.559,1.926s8.71,13.411,8.09,23.6-3.642,17.121-6.934,20.621-7.424,11.473-19.1,10.832-21.168.059-26.427-10.832-9.754-18.739-4.81-28.5S179.313-413.585,189.369-417.6Z" transform="translate(840.959 -406.506)" fill="none" stroke="#131313" stroke-width="2"/>
  </g>
</svg>
