<svg xmlns="http://www.w3.org/2000/svg" width="63.733" height="62.001" viewBox="0 0 63.733 62.001">
  <g id="Group_32" data-name="Group 32" transform="translate(-1086.64 828.092)">
    <path id="Path_27" data-name="Path 27" d="M1066.029-785.738c-.055,1.585-.071,9.526,0,12.889s1.8,3.9,3.468,3.861c.766-.019,5.024-.263,7.546-.272,2.063,0,8.942.29,10.065.272,2.075-.033,3.653-.532,3.5-3.861s0-11.354,0-12.889-1.539-3.1-4.143-3.031-16.879-.039-17.889,0A3.321,3.321,0,0,0,1066.029-785.738Z" transform="translate(40.214 -16.945)" fill="none" stroke="#131313" stroke-width="2"/>
    <path id="Path_28" data-name="Path 28" d="M1066.26-787.315s10.764,7.541,11.707,7.551,12.08-7.551,12.08-7.551" transform="translate(40.357 -16.346)" fill="none" stroke="#131313" stroke-width="2"/>
    <path id="Path_29" data-name="Path 29" d="M189.486-417.527c10.312-4.121,24.319-4.642,35.44,1.975s10.47,13.753,9.834,24.205a33.879,33.879,0,0,1-8.649,21.147c-3.376,3.589-7.613,10.228-19.592,9.57s-21.707,1.6-27.1-9.57-7.99-21.054-4.932-29.224S179.174-413.407,189.486-417.527Z" transform="translate(914.392 -406.506)" fill="none" stroke="#131313" stroke-width="2"/>
  </g>
</svg>
